<svg xmlns="http://www.w3.org/2000/svg" xmlns:xlink="http://www.w3.org/1999/xlink" version="1.1" x="0px" y="0px" viewBox="0 0 140 175" style="enable-background:new 0 0 140 140;" xml:space="preserve"><path d="M21.3728638,17.3959961H6.0125122c-0.5522461,0-1,0.4472656-1,1s0.4477539,1,1,1h14.5849609l8.8968506,34.5771484  h-3.1566162c-0.5522461,0-1,0.4472656-1,1s0.4477539,1,1,1h3.6712036l2.6622314,10.3466797h-3.6151733c-0.5522461,0-1,0.4472656-1,1  s0.4477539,1,1,1h4.1298218l3.1732788,12.3330078h-6.1204834c-0.5522461,0-1,0.4472656-1,1s0.4477539,1,1,1h6.6351318  l2.9034424,11.2841797c1.0338135,4.0221558,4.6533813,6.8319702,8.8049316,6.8391724  c0.0062866,0.0001221,0.0114746,0.0036011,0.0178223,0.0036011h0.9194946  c-3.2004395,2.1383057-5.3140259,5.7814941-5.3140259,9.9111328c0,6.5693359,5.3442383,11.9130859,11.9135742,11.9130859  c6.5688477,0,11.9130859-5.34375,11.9130859-11.9130859c0-4.1296387-2.1135864-7.7728271-5.3139038-9.9111328h38.2387695  c-3.2004395,2.1383057-5.3140259,5.7814941-5.3140259,9.9111328c0,6.5693359,5.3442383,11.9130859,11.9135742,11.9130859  c6.5688477,0,11.9130859-5.34375,11.9130859-11.9130859c0-4.28302-2.2792358-8.0342407-5.6809082-10.1343384  c3.1630249-0.7000122,5.7437134-3.0332031,6.7165527-6.2660522l14.4702148-53.6201172  c0.0810547-0.3007812,0.0175781-0.6220703-0.1713867-0.8691406c-0.1894531-0.2470703-0.4829102-0.3916016-0.7939453-0.3916016  H27.8120117l-5.4708862-21.2626953C22.2278442,17.7045898,21.8294067,17.3959961,21.3728638,17.3959961z M66.0320435,110.690918  c0,5.4658203-4.4467773,9.9130859-9.9130859,9.9130859s-9.9135742-4.4472656-9.9135742-9.9130859  c0-5.4472656,4.4162598-9.8795776,9.8557129-9.9111328h0.1157227  C61.616272,100.8113403,66.0320435,105.2436523,66.0320435,110.690918z M117.4695435,110.690918  c0,5.4658203-4.4467773,9.9130859-9.9130859,9.9130859s-9.9135742-4.4472656-9.9135742-9.9130859  c0-5.4472656,4.4162598-9.8795776,9.8557129-9.9111328h0.1157227  C113.053772,100.8113403,117.4695435,105.2436523,117.4695435,110.690918z M132.7044067,41.409668l-14.1220703,52.3320312  c-0.9072266,3.0136719-3.637207,5.0380859-6.7924805,5.0380859h-4.1755981  c-0.0194702-0.0001221-0.038269-0.0029297-0.0578003-0.0029297s-0.0383301,0.0028076-0.0578003,0.0029297H56.1767578  c-0.0194702-0.0001221-0.038269-0.0029297-0.0578003-0.0029297s-0.0383301,0.0028076-0.0578003,0.0029297h-7.4486694  c-0.005127-0.000061-0.0093994-0.0029297-0.0145264-0.0029297c-3.2451172,0-6.0756836-2.1953125-6.8842773-5.3378906  L38.9384155,82.652832h37.6307373c0.5522461,0,1-0.4472656,1-1s-0.4477539-1-1-1H38.4238281l-3.1732788-12.3330078h2.8327637  c0.5522461,0,1-0.4472656,1-1s-0.4477539-1-1-1h-3.3473511l-2.6621704-10.3466797h37.9162598c0.5522461,0,1-0.4472656,1-1  s-0.4477539-1-1-1H31.5591431L28.3265991,41.409668H132.7044067z"/><path d="M47.524231,67.3198242c0,0.5527344,0.4477539,1,1,1h37.1967773c0.5522461,0,1-0.4472656,1-1s-0.4477539-1-1-1H48.524231  C47.9719849,66.3198242,47.524231,66.7670898,47.524231,67.3198242z"/><path d="M5.9900513,82.652832h11.2436523c0.5522461,0,1-0.4472656,1-1s-0.4477539-1-1-1H5.9900513c-0.5522461,0-1,0.4472656-1,1  S5.4378052,82.652832,5.9900513,82.652832z"/><path d="M6.5369263,53.9731445c-0.5522461,0-1,0.4472656-1,1s0.4477539,1,1,1H16.645813c0.5522461,0,1-0.4472656,1-1  s-0.4477539-1-1-1H6.5369263z"/><text x="0" y="155" fill="#000000" font-size="5px" font-weight="bold" font-family="'Helvetica Neue', Helvetica, Arial-Unicode, Arial, Sans-serif">Created by rivercon</text><text x="0" y="160" fill="#000000" font-size="5px" font-weight="bold" font-family="'Helvetica Neue', Helvetica, Arial-Unicode, Arial, Sans-serif">from the Noun Project</text></svg>